<?xml version="1.0" encoding="iso-8859-1"?>
<!-- Generator: Adobe Illustrator 16.0.0, SVG Export Plug-In . SVG Version: 6.00 Build 0)  -->
<!DOCTYPE svg PUBLIC "-//W3C//DTD SVG 1.1//EN" "http://www.w3.org/Graphics/SVG/1.1/DTD/svg11.dtd">
<svg version="1.1" id="Capa_1" xmlns="http://www.w3.org/2000/svg" xmlns:xlink="http://www.w3.org/1999/xlink" x="0px" y="0px"
	 width="485.211px" height="485.211px" viewBox="0 0 485.211 485.211" style="enable-background:new 0 0 485.211 485.211;"
	 xml:space="preserve" >
<g>
	<g>
		<path fill="#FFF" d="M454.889,90.976H30.327C13.562,90.976,0,104.541,0,121.303v242.602c0,16.769,13.564,30.331,30.327,30.331h424.562
			c16.759,0,30.322-13.562,30.322-30.331V121.303C485.211,104.541,471.647,90.976,454.889,90.976z M454.889,363.904H30.327V212.28
			h424.562V363.904z M454.889,151.627H30.327v-30.324h424.562V151.627z"/>
		<rect x="60.651" y="303.256" width="60.653" height="30.327"/>
		<rect x="151.628" y="303.256" width="60.654" height="30.327"/>
		<path  fill="#FFF" d="M318.423,333.583c11.696,0,22.271-4.561,30.322-11.812c8.056,7.252,18.631,11.812,30.331,11.812
			c25.109,0,45.485-20.372,45.485-45.49c0-25.109-20.376-45.488-45.485-45.488c-11.7,0-22.275,4.562-30.331,11.819
			c-8.051-7.257-18.626-11.819-30.322-11.819c-25.118,0-45.49,20.379-45.49,45.488C272.933,313.211,293.305,333.583,318.423,333.583
			z"/>
	</g>
</g>
<g>
</g>
<g>
</g>
<g>
</g>
<g>
</g>
<g>
</g>
<g>
</g>
<g>
</g>
<g>
</g>
<g>
</g>
<g>
</g>
<g>
</g>
<g>
</g>
<g>
</g>
<g>
</g>
<g>
</g>
</svg>
