<svg xmlns="http://www.w3.org/2000/svg" height="512pt" version="1.1" viewBox="0 -77 512.00003 512" width="512pt">
<g id="surface1">
<path d="M 256 80.09375 C 238.289062 69.199219 217.46875 62.929688 195.199219 62.929688 C 130.953125 62.929688 78.695312 115.1875 78.695312 179.433594 C 78.695312 243.679688 130.953125 295.941406 195.199219 295.941406 C 217.46875 295.941406 238.289062 289.667969 256 278.777344 C 273.710938 289.667969 294.53125 295.941406 316.800781 295.941406 C 381.046875 295.941406 433.304688 243.679688 433.304688 179.433594 C 433.304688 88.183594 332.835938 32.839844 256 80.09375 Z M 256 240.355469 C 222.277344 206.683594 222.226562 152.234375 256 118.511719 C 289.722656 152.1875 289.773438 206.632812 256 240.355469 Z M 195.199219 265.542969 C 147.722656 265.542969 109.089844 226.910156 109.089844 179.433594 C 109.089844 116.8125 174.085938 75.304688 230.628906 100.953125 C 190.191406 145.121094 190.167969 213.722656 230.628906 257.914062 C 219.820312 262.820312 207.824219 265.542969 195.199219 265.542969 Z M 316.800781 265.542969 C 304.175781 265.542969 292.179688 262.820312 281.371094 257.914062 C 321.726562 213.835938 321.910156 145.234375 281.371094 100.953125 C 337.9375 75.292969 402.910156 116.847656 402.910156 179.433594 C 402.910156 226.910156 364.277344 265.542969 316.800781 265.542969 Z M 316.800781 265.542969 " style=" stroke:none;fill-rule:nonzero;fill:rgb(100%,100%,100%);fill-opacity:1;" />
<path d="M 466.40625 0 L 45.59375 0 C 20.457031 0 0 20.457031 0 45.59375 L 0 313.273438 C 0 338.410156 20.457031 358.867188 45.59375 358.867188 L 466.40625 358.867188 C 491.542969 358.867188 512 338.410156 512 313.273438 L 512 45.59375 C 512 20.457031 491.542969 0 466.40625 0 Z M 481.605469 313.273438 C 481.605469 321.652344 474.785156 328.472656 466.40625 328.472656 L 45.59375 328.472656 C 37.214844 328.472656 30.394531 321.652344 30.394531 313.273438 L 30.394531 45.59375 C 30.394531 37.214844 37.214844 30.394531 45.59375 30.394531 L 466.40625 30.394531 C 474.785156 30.394531 481.605469 37.214844 481.605469 45.59375 Z M 481.605469 313.273438 " style=" stroke:none;fill-rule:nonzero;fill:rgb(100%,100%,100%);fill-opacity:1;" />
</g>
</svg>